<?xml version="1.0" encoding="utf-8"?>
<!-- Generator: Adobe Illustrator 21.0.2, SVG Export Plug-In . SVG Version: 6.00 Build 0)  -->
<!DOCTYPE svg PUBLIC "-//W3C//DTD SVG 1.1//EN" "http://www.w3.org/Graphics/SVG/1.1/DTD/svg11.dtd">
<svg version="1.1" id="Layer_1" xmlns="http://www.w3.org/2000/svg" xmlns:xlink="http://www.w3.org/1999/xlink" x="0px" y="0px"
	 viewBox="0 0 240 240" style="enable-background:new 0 0 240 240;" xml:space="preserve">
<style type="text/css">
	.st0{fill:#FFFFFF;}
</style>
<path class="st0" d="M183.6,128.2c9.8-6.2,16.4-17.1,16.4-29.6c0-19.2-15.7-34.9-34.9-34.9h0c-4.2,0-8.7,1.1-13.2,3
	c1.8-4.5,3-9,3-13.2c0-19.2-15.7-34.9-34.9-34.9S85.1,34.3,85.1,53.6c0,4.2,1.1,8.7,3,13.2c-4.5-1.8-9-3-13.2-3
	C55.7,63.8,40,79.4,40,98.7c0,12.5,6.6,23.4,16.4,29.6c-14.2,11.5-20.2,31.1-13.6,49.2c6,16.4,28.1,31.5,45.5,41.4
	c3.1,1.7,6.5,2.6,9.9,2.6c2.3,0,4.7-0.4,6.9-1.2c5.5-2,9.9-6.3,12-11.8c1-2.6,2-5.4,2.9-8.3c1,2.9,1.9,5.6,2.9,8.3
	c2.1,5.5,6.4,9.8,12,11.8c2.2,0.8,4.6,1.2,6.9,1.2c3.4,0,6.8-0.9,9.9-2.6c17.5-9.8,39.5-24.9,45.5-41.4
	C203.8,159.3,197.7,139.7,183.6,128.2z M165.1,78.9c10.9,0,19.8,8.9,19.8,19.8s-8.9,19.8-19.8,19.8c-7.9,0-20.5-8.4-30.5-16.7
	c-1.9-1.6-1.9-4.5,0-6.1C144.6,87.3,157.2,78.9,165.1,78.9z M120,33.8c10.9,0,19.8,8.9,19.8,19.8c0,7.9-8.4,20.5-16.7,30.5
	c-1.6,1.9-4.5,1.9-6.1,0c-8.3-10-16.7-22.6-16.7-30.5C100.2,42.6,109.1,33.8,120,33.8z M55.1,98.7c0-10.9,8.9-19.8,19.8-19.8
	c7.9,0,20.5,8.4,30.5,16.7c1.9,1.6,1.9,4.5,0,6.1c-10,8.3-22.6,16.7-30.5,16.7C64,118.4,55.1,109.6,55.1,98.7z M102.9,202.9
	c-0.7,1.9-2.2,2.7-3,3c-0.8,0.3-2.4,0.6-4.2-0.3c-21.2-11.9-35.3-24.1-38.7-33.4c-5.4-14.9,2.3-31.5,17.2-36.9
	c7.2-2.6,15-2.3,22,0.9c7,3.2,12.3,9,14.9,16.2C114.5,161.8,111.5,180.2,102.9,202.9z M120.1,139.7c0,0.1-0.2,0.1-0.2,0
	c-1.2-6.5-10.9-16.2-17.4-17.4c-0.1,0-0.1-0.2,0-0.2c6.5-1.2,16.2-10.9,17.4-17.4c0-0.1,0.2-0.1,0.2,0c1.2,6.5,10.9,16.2,17.4,17.4
	c0.1,0,0.1,0.2,0,0.2C131,123.5,121.3,133.2,120.1,139.7z M183,172.2c-3.4,9.3-17.5,21.4-38.7,33.4c-1.8,1-3.4,0.6-4.2,0.3
	c-0.8-0.3-2.3-1.1-3-3c-8.6-22.8-11.5-41.2-8.2-50.5c2.6-7.2,7.9-13,14.9-16.2c3.9-1.8,8-2.7,12.1-2.7c3.3,0,6.7,0.6,9.9,1.8
	C180.7,140.7,188.5,157.3,183,172.2z"/>
</svg>
