<?xml version="1.0" encoding="utf-8"?>
<!-- Generator: Adobe Illustrator 21.0.2, SVG Export Plug-In . SVG Version: 6.00 Build 0)  -->
<!DOCTYPE svg PUBLIC "-//W3C//DTD SVG 1.1//EN" "http://www.w3.org/Graphics/SVG/1.1/DTD/svg11.dtd">
<svg version="1.1" id="Layer_1" xmlns="http://www.w3.org/2000/svg" xmlns:xlink="http://www.w3.org/1999/xlink" x="0px" y="0px"
	 viewBox="0 0 606 239" style="enable-background:new 0 0 606 239;" xml:space="preserve">
<style type="text/css">
	.st0{fill:#FFFFFF;}
</style>
<path class="st0" d="M177.6,96.4c0-22-17.9-39.8-39.8-39.8c-3.6,0-7.3,0.8-11.1,1.9c1.2-3.8,1.9-7.5,1.9-11.1
	c0-22-17.9-39.8-39.8-39.8C66.8,7.6,49,25.5,49,47.5c0,3.6,0.8,7.3,1.9,11.1c-3.8-1.2-7.5-1.9-11.1-1.9C17.9,56.6,0,74.5,0,96.4
	c0,13.3,6.6,25,16.6,32.3C2,141.9-4,163,3.1,182.6c5.2,14.3,21.3,29.3,47.9,44.5c4,2.3,8.5,3.5,13,3.5c3,0,6-0.5,8.9-1.6
	c7.2-2.6,12.9-8.3,15.5-15.6c0.1-0.4,0.2-0.7,0.4-1.1c0.1,0.4,0.2,0.7,0.4,1.1c2.6,7.3,8.3,12.9,15.5,15.6c2.9,1.1,5.9,1.6,8.9,1.6
	c4.5,0,9-1.2,13-3.5c26.6-15.3,42.7-30.3,47.9-44.5c7.1-19.5,1.1-40.7-13.5-53.9C171,121.5,177.6,109.7,177.6,96.4z M88.8,29.2
	c10.8,0,19.5,8.8,19.5,19.5c0,7.5-8.2,20.3-16.9,30.9c-1.3,1.6-3.8,1.6-5.2,0c-8.7-10.7-16.9-23.4-16.9-30.9
	C69.3,37.9,78,29.2,88.8,29.2z M39.8,78.1c7.5,0,20.2,8.2,30.9,16.9c1.6,1.3,1.6,3.8,0,5.2c-10.7,8.7-23.4,16.9-30.9,16.9
	c-10.8,0-19.5-8.8-19.5-19.5C20.3,86.9,29.1,78.1,39.8,78.1z M69.3,207.7c-0.8,2.2-2.5,3.1-3.4,3.4c-0.9,0.3-2.8,0.7-4.8-0.4
	c-21.4-12.3-35.5-24.6-38.9-33.9c-5.5-15.2,2.3-32,17.5-37.6c7.4-2.7,15.3-2.3,22.4,1c7.1,3.3,12.5,9.2,15.2,16.5
	C80.6,166,77.7,184.6,69.3,207.7z M88.8,140.3c0-6.4-11.2-17.5-17.5-17.5c6.4,0,17.5-11.2,17.5-17.5c0,6.4,11.2,17.5,17.5,17.5
	C100,122.7,88.8,133.9,88.8,140.3z M155.3,176.8c-3.4,9.2-17.6,21.6-38.9,33.9c-2,1.2-3.9,0.8-4.8,0.4c-0.9-0.3-2.6-1.2-3.4-3.4
	c-8.4-23.1-11.3-41.7-8-51c4.3-11.9,15.6-19.3,27.6-19.3c3.3,0,6.7,0.6,10,1.8C153,144.8,160.9,161.6,155.3,176.8z M137.8,117.1
	c-7.5,0-20.3-8.2-30.9-16.9c-1.6-1.3-1.6-3.8,0-5.2c10.7-8.7,23.4-16.9,30.9-16.9c10.8,0,19.5,8.7,19.5,19.5
	C157.3,108.4,148.5,117.1,137.8,117.1z"/>
<g>
	<g>
		<path class="st0" d="M271.5,90.4c-2-1.3-4.2-2.4-6.5-3.2c-2.3-0.8-4.6-1.6-7-2.2c-2.2-0.6-4.2-1.1-6-1.7c-1.5-0.5-2.7-1.2-3.6-2.1
			c-0.7-0.7-1.1-1.8-1.1-3.1c0-1.6,0.6-2.3,1-2.7c1.6-1.3,4.8-1.5,6.4,0.2c0.7,0.7,1.2,1.8,1.4,3.1c0.1,0.3,0.2,1.3,1.1,2
			c0.8,0.7,1.9,0.8,2.2,0.8h15c0.8,0,1.6-0.3,2.2-1c0.6-0.6,0.9-1.5,0.9-2.3c-0.4-6.9-2.9-12.1-7.5-15.5c-4.6-3.4-10.6-5.1-17.9-5.1
			c-7.3,0-13.5,2-18.3,5.8c-4.9,4-7.4,9.3-7.4,15.9c0,3.4,0.7,6.3,2,8.8c1.3,2.5,3.1,4.5,5.3,5.9c2,1.2,4.1,2.3,6.5,3.2
			c2.3,0.9,4.6,1.6,7,2.2c2.2,0.6,4.2,1.1,5.9,1.8c1.5,0.5,2.7,1.3,3.6,2.2c0.7,0.7,1.1,1.6,1.1,2.8c0,1.2-0.4,2.1-1.2,2.8
			c-0.8,0.8-2.1,1.2-3.7,1.2c-3.4,0-5-1.5-5.4-4.9c-0.2-1.5-1.5-2.7-3-2.7h-14.9c-0.8,0-1.6,0.3-2.2,0.9c-0.6,0.6-0.9,1.4-0.9,2.3
			c0.2,6.6,2.7,11.8,7.4,15.5c4.7,3.7,11,5.6,18.6,5.6c7.7,0,14-2.1,18.7-6.3c4.9-4.2,7.3-9.5,7.3-15.5c0-3.4-0.7-6.4-2-8.9
			C275.4,93.8,273.7,91.8,271.5,90.4z"/>
		<path class="st0" d="M333.2,58.5h-48.4c-1.7,0-3.1,1.4-3.1,3.1v10.1c0,1.7,1.4,3.1,3.1,3.1H299v48.6c0,1.7,1.4,3.1,3.1,3.1h13.8
			c1.7,0,3.1-1.4,3.1-3.1V74.7h14.3c1.7,0,3.1-1.4,3.1-3.1V61.6C336.3,59.9,334.9,58.5,333.2,58.5z"/>
		<path class="st0" d="M372.5,57.6c-9.7,0-18,3.3-24.7,9.8c-6.7,6.5-10.1,14.9-10.1,24.9s3.4,18.4,10.1,24.9
			c6.7,6.5,15,9.8,24.7,9.8s17.9-3.3,24.6-9.9c6.7-6.6,10.1-14.9,10.1-24.9c0-10-3.4-18.3-10-24.9C390.4,60.9,382.2,57.6,372.5,57.6
			z M361.8,80.5c2.6-2.9,6.1-4.2,10.5-4.2s7.9,1.4,10.5,4.2c2.7,2.9,4,6.7,4,11.7c0,5-1.3,8.8-4,11.8c-2.6,2.9-6.1,4.2-10.5,4.2
			s-7.9-1.4-10.5-4.2c-2.7-2.9-4-6.8-4-11.8C357.9,87.3,359.2,83.4,361.8,80.5z"/>
		<path class="st0" d="M473.3,58.3h-13.8c-1.7,0-3.1,1.4-3.1,3.1v31.6l-21.4-33.2c-0.6-0.9-1.5-1.4-2.6-1.4h-14.2
			c-1.7,0-3.1,1.4-3.1,3.1v62c0,1.7,1.4,3.1,3.1,3.1H432c1.7,0,3.1-1.4,3.1-3.1V91.8l21.4,33.2c0.6,0.9,1.5,1.4,2.6,1.4h14.2
			c1.7,0,3.1-1.4,3.1-3.1v-62C476.3,59.7,475,58.3,473.3,58.3z"/>
		<path class="st0" d="M528.7,58.3H492c-1.7,0-3.1,1.4-3.1,3.1v62c0,1.7,1.4,3.1,3.1,3.1h36.8c1.7,0,3.1-1.4,3.1-3.1v-10.1
			c0-1.7-1.4-3.1-3.1-3.1h-19.9V100H526c1.7,0,3.1-1.4,3.1-3.1V86.7c0-1.7-1.4-3.1-3.1-3.1h-17.2v-9.1h19.9c1.7,0,3.1-1.4,3.1-3.1
			V61.4C531.8,59.7,530.4,58.3,528.7,58.3z"/>
	</g>
	<g>
		<path class="st0" d="M318.4,162.7h-14.9c-1.5,0-2.7,1-3,2.4l-7.2,34.5l-8.3-34.6c-0.3-1.4-1.6-2.3-3-2.3h-16.3c-1.4,0-2.6,1-3,2.3
			l-8.9,36l-8.7-36c-0.3-1.4-1.6-2.3-3-2.3h-14.8c-1,0-1.8,0.4-2.4,1.2c-0.6,0.8-0.8,1.7-0.5,2.7l17.5,61.8c0.4,1.3,1.6,2.2,2.9,2.2
			h16.5c1.4,0,2.6-0.9,2.9-2.2l8.7-31.7l8.8,31.7c0.4,1.3,1.6,2.2,2.9,2.2h16.5c1.4,0,2.6-0.9,2.9-2.2l17.3-61.8
			c0.3-0.9,0.1-1.9-0.5-2.7S319.4,162.7,318.4,162.7z"/>
		<path class="st0" d="M357.7,161.8c-9.7,0-18,3.3-24.7,9.8c-6.7,6.5-10.1,14.9-10.1,24.9s3.4,18.4,10.1,24.9
			c6.7,6.5,15,9.8,24.7,9.8s17.9-3.3,24.6-9.9c6.7-6.6,10.1-14.9,10.1-24.9c0-10-3.4-18.3-10-24.9
			C375.6,165.1,367.3,161.8,357.7,161.8z M347,184.7c2.6-2.9,6.1-4.2,10.5-4.2c4.5,0,7.9,1.4,10.5,4.2c2.7,2.9,4,6.7,4,11.7
			s-1.3,8.8-4,11.8c-2.6,2.9-6.1,4.2-10.5,4.2c-4.5,0-7.9-1.4-10.5-4.2c-2.7-2.9-4-6.8-4-11.8C343.1,191.5,344.4,187.6,347,184.7z"
			/>
		<path class="st0" d="M474.5,162.7h-16.4c-1.2,0-2.3,0.7-2.8,1.9l-15.9,38.2l-15.9-38.2c-0.5-1.1-1.6-1.9-2.8-1.9h-16.4
			c-1.7,0-3.1,1.4-3.1,3.1v61.8c0,1.7,1.4,3.1,3.1,3.1h13.8c1.7,0,3.1-1.4,3.1-3.1V204l10.2,24.7c0.5,1.1,1.6,1.9,2.8,1.9h10.4
			c1.2,0,2.3-0.7,2.8-1.9l10.2-24.7v23.5c0,1.7,1.4,3.1,3.1,3.1h13.8c1.7,0,3.1-1.4,3.1-3.1v-61.8
			C477.5,164,476.2,162.7,474.5,162.7z"/>
		<path class="st0" d="M530,162.5h-36.8c-1.7,0-3.1,1.4-3.1,3.1v62c0,1.7,1.4,3.1,3.1,3.1H530c1.7,0,3.1-1.4,3.1-3.1v-10.1
			c0-1.7-1.4-3.1-3.1-3.1h-19.9v-10.2h17.2c1.7,0,3.1-1.4,3.1-3.1v-10.1c0-1.7-1.4-3.1-3.1-3.1h-17.2v-9.1H530
			c1.7,0,3.1-1.4,3.1-3.1v-10.1C533,163.9,531.6,162.5,530,162.5z"/>
		<path class="st0" d="M602.9,162.5h-13.8c-1.7,0-3.1,1.4-3.1,3.1v31.6l-21.4-33.2c-0.6-0.9-1.5-1.4-2.6-1.4h-14.2
			c-1.7,0-3.1,1.4-3.1,3.1v62c0,1.7,1.4,3.1,3.1,3.1h13.8c1.7,0,3.1-1.4,3.1-3.1V196l21.4,33.2c0.6,0.9,1.5,1.4,2.6,1.4h14.2
			c1.7,0,3.1-1.4,3.1-3.1v-62C606,163.9,604.6,162.5,602.9,162.5z"/>
	</g>
</g>
</svg>
